<?xml version="1.0" encoding="UTF-8" standalone="no"?>
<!DOCTYPE svg PUBLIC "-//W3C//DTD SVG 1.1//EN"
 "http://www.w3.org/Graphics/SVG/1.1/DTD/svg11.dtd">
<!-- Generated by graphviz version 3.0.0 (20220226.1711)
 -->
<!-- Title: dependencies Pages: 1 -->
<svg width="1103pt" height="247pt"
 viewBox="0.00 0.00 1103.00 246.80" xmlns="http://www.w3.org/2000/svg" xmlns:xlink="http://www.w3.org/1999/xlink">
<g id="graph0" class="graph" transform="scale(1 1) rotate(0) translate(4 242.8)">
<title>dependencies</title>
<polygon fill="white" stroke="transparent" points="-4,4 -4,-242.8 1099,-242.8 1099,4 -4,4"/>
<text text-anchor="middle" x="547.5" y="-8.2" font-family="sans-serif" font-size="14.00">dependencies</text>
<g id="clust1" class="cluster">
<title>cluster_AppModule</title>
<polygon fill="none" stroke="black" stroke-dasharray="1,5" points="8,-32.8 8,-230.8 1087,-230.8 1087,-32.8 8,-32.8"/>
</g>
<g id="clust2" class="cluster">
<title>cluster_AppModule_declarations</title>
<polygon fill="none" stroke="black" points="434,-40.8 434,-92.8 1079,-92.8 1079,-40.8 434,-40.8"/>
</g>
<g id="clust9" class="cluster">
<title>cluster_AppModule_bootstrap</title>
<polygon fill="none" stroke="black" points="453,-170.8 453,-222.8 577,-222.8 577,-170.8 453,-170.8"/>
</g>
<g id="clust7" class="cluster">
<title>cluster_AppModule_imports</title>
<polygon fill="none" stroke="black" points="16,-40.8 16,-92.8 426,-92.8 426,-40.8 16,-40.8"/>
</g>
<!-- AppComponent -->
<g id="node1" class="node">
<title>AppComponent</title>
<polygon fill="#ffffb3" stroke="black" points="1070.94,-84.8 965.06,-84.8 965.06,-48.8 1070.94,-48.8 1070.94,-84.8"/>
<text text-anchor="middle" x="1018" y="-62.6" font-family="Times,serif" font-size="14.00">AppComponent</text>
</g>
<!-- AppModule -->
<g id="node5" class="node">
<title>AppModule</title>
<polygon fill="#8dd3c7" stroke="black" points="556.66,-149.8 553.66,-153.8 532.66,-153.8 529.66,-149.8 473.34,-149.8 473.34,-113.8 556.66,-113.8 556.66,-149.8"/>
<text text-anchor="middle" x="515" y="-127.6" font-family="Times,serif" font-size="14.00">AppModule</text>
</g>
<!-- AppComponent&#45;&gt;AppModule -->
<g id="edge1" class="edge">
<title>AppComponent&#45;&gt;AppModule</title>
<path fill="none" stroke="black" d="M1018,-85.09C1018,-107.01 1018,-140.8 1018,-140.8 1018,-140.8 567.02,-140.8 567.02,-140.8"/>
<polygon fill="black" stroke="black" points="567.02,-137.3 557.02,-140.8 567.02,-144.3 567.02,-137.3"/>
</g>
<!-- EqualsTableComponent -->
<g id="node2" class="node">
<title>EqualsTableComponent</title>
<polygon fill="#ffffb3" stroke="black" points="947.8,-84.8 796.2,-84.8 796.2,-48.8 947.8,-48.8 947.8,-84.8"/>
<text text-anchor="middle" x="872" y="-62.6" font-family="Times,serif" font-size="14.00">EqualsTableComponent</text>
</g>
<!-- EqualsTableComponent&#45;&gt;AppModule -->
<g id="edge2" class="edge">
<title>EqualsTableComponent&#45;&gt;AppModule</title>
<path fill="none" stroke="black" d="M872,-84.91C872,-104.14 872,-131.8 872,-131.8 872,-131.8 567,-131.8 567,-131.8"/>
<polygon fill="black" stroke="black" points="567,-128.3 557,-131.8 567,-135.3 567,-128.3"/>
</g>
<!-- SubjectTreeAppComponent -->
<g id="node3" class="node">
<title>SubjectTreeAppComponent</title>
<polygon fill="#ffffb3" stroke="black" points="778.58,-84.8 605.42,-84.8 605.42,-48.8 778.58,-48.8 778.58,-84.8"/>
<text text-anchor="middle" x="692" y="-62.6" font-family="Times,serif" font-size="14.00">SubjectTreeAppComponent</text>
</g>
<!-- SubjectTreeAppComponent&#45;&gt;AppModule -->
<g id="edge3" class="edge">
<title>SubjectTreeAppComponent&#45;&gt;AppModule</title>
<path fill="none" stroke="black" d="M692,-84.83C692,-101.2 692,-122.8 692,-122.8 692,-122.8 566.95,-122.8 566.95,-122.8"/>
<polygon fill="black" stroke="black" points="566.95,-119.3 556.95,-122.8 566.95,-126.3 566.95,-119.3"/>
</g>
<!-- SwaggerUIComponent -->
<g id="node4" class="node">
<title>SwaggerUIComponent</title>
<polygon fill="#ffffb3" stroke="black" points="587.59,-84.8 442.41,-84.8 442.41,-48.8 587.59,-48.8 587.59,-84.8"/>
<text text-anchor="middle" x="515" y="-62.6" font-family="Times,serif" font-size="14.00">SwaggerUIComponent</text>
</g>
<!-- SwaggerUIComponent&#45;&gt;AppModule -->
<g id="edge4" class="edge">
<title>SwaggerUIComponent&#45;&gt;AppModule</title>
<path fill="none" stroke="black" d="M515,-84.91C515,-84.91 515,-103.79 515,-103.79"/>
<polygon fill="black" stroke="black" points="511.5,-103.79 515,-113.79 518.5,-103.79 511.5,-103.79"/>
</g>
<!-- AppComponent  -->
<g id="node9" class="node">
<title>AppComponent </title>
<polygon fill="#80b1d3" stroke="black" points="569.44,-214.8 460.56,-214.8 460.56,-178.8 569.44,-178.8 569.44,-214.8"/>
<text text-anchor="middle" x="515" y="-192.6" font-family="Times,serif" font-size="14.00">AppComponent </text>
</g>
<!-- AppModule&#45;&gt;AppComponent  -->
<g id="edge8" class="edge">
<title>AppModule&#45;&gt;AppComponent </title>
<path fill="none" stroke="black" stroke-dasharray="1,5" d="M515,-149.91C515,-149.91 515,-168.79 515,-168.79"/>
<polygon fill="black" stroke="black" points="511.5,-168.79 515,-178.79 518.5,-168.79 511.5,-168.79"/>
</g>
<!-- EqualsTableModule -->
<g id="node6" class="node">
<title>EqualsTableModule</title>
<polygon fill="#8dd3c7" stroke="black" points="417.53,-84.8 414.53,-88.8 393.53,-88.8 390.53,-84.8 288.47,-84.8 288.47,-48.8 417.53,-48.8 417.53,-84.8"/>
<text text-anchor="middle" x="353" y="-62.6" font-family="Times,serif" font-size="14.00">EqualsTableModule</text>
</g>
<!-- EqualsTableModule&#45;&gt;AppModule -->
<g id="edge5" class="edge">
<title>EqualsTableModule&#45;&gt;AppModule</title>
<path fill="none" stroke="black" d="M353,-84.83C353,-101.2 353,-122.8 353,-122.8 353,-122.8 463.28,-122.8 463.28,-122.8"/>
<polygon fill="black" stroke="black" points="463.28,-126.3 473.28,-122.8 463.28,-119.3 463.28,-126.3"/>
</g>
<!-- HeaderModule -->
<g id="node7" class="node">
<title>HeaderModule</title>
<polygon fill="#8dd3c7" stroke="black" points="269.97,-84.8 266.97,-88.8 245.97,-88.8 242.97,-84.8 170.03,-84.8 170.03,-48.8 269.97,-48.8 269.97,-84.8"/>
<text text-anchor="middle" x="220" y="-62.6" font-family="Times,serif" font-size="14.00">HeaderModule</text>
</g>
<!-- HeaderModule&#45;&gt;AppModule -->
<g id="edge6" class="edge">
<title>HeaderModule&#45;&gt;AppModule</title>
<path fill="none" stroke="black" d="M220,-84.91C220,-104.14 220,-131.8 220,-131.8 220,-131.8 463.05,-131.8 463.05,-131.8"/>
<polygon fill="black" stroke="black" points="463.05,-135.3 473.05,-131.8 463.05,-128.3 463.05,-135.3"/>
</g>
<!-- SubjectTreeModule -->
<g id="node8" class="node">
<title>SubjectTreeModule</title>
<polygon fill="#8dd3c7" stroke="black" points="151.69,-84.8 148.69,-88.8 127.69,-88.8 124.69,-84.8 24.31,-84.8 24.31,-48.8 151.69,-48.8 151.69,-84.8"/>
<text text-anchor="middle" x="88" y="-62.6" font-family="Times,serif" font-size="14.00">SubjectTreeModule</text>
</g>
<!-- SubjectTreeModule&#45;&gt;AppModule -->
<g id="edge7" class="edge">
<title>SubjectTreeModule&#45;&gt;AppModule</title>
<path fill="none" stroke="black" d="M88,-85.09C88,-107.01 88,-140.8 88,-140.8 88,-140.8 463.28,-140.8 463.28,-140.8"/>
<polygon fill="black" stroke="black" points="463.28,-144.3 473.28,-140.8 463.28,-137.3 463.28,-144.3"/>
</g>
</g>
</svg>
