<?xml version="1.0" encoding="UTF-8" standalone="no"?>
<!DOCTYPE svg PUBLIC "-//W3C//DTD SVG 1.1//EN"
 "http://www.w3.org/Graphics/SVG/1.1/DTD/svg11.dtd">
<!-- Generated by graphviz version 3.0.0 (20220226.1711)
 -->
<!-- Title: dependencies Pages: 1 -->
<svg width="366pt" height="247pt"
 viewBox="0.00 0.00 366.00 246.80" xmlns="http://www.w3.org/2000/svg" xmlns:xlink="http://www.w3.org/1999/xlink">
<g id="graph0" class="graph" transform="scale(1 1) rotate(0) translate(4 242.8)">
<title>dependencies</title>
<polygon fill="white" stroke="transparent" points="-4,4 -4,-242.8 362,-242.8 362,4 -4,4"/>
<text text-anchor="middle" x="179" y="-8.2" font-family="sans-serif" font-size="14.00">dependencies</text>
<g id="clust1" class="cluster">
<title>cluster_HeaderModule</title>
<polygon fill="none" stroke="black" stroke-dasharray="1,5" points="8,-32.8 8,-230.8 350,-230.8 350,-32.8 8,-32.8"/>
</g>
<g id="clust6" class="cluster">
<title>cluster_HeaderModule_exports</title>
<polygon fill="none" stroke="black" points="16,-170.8 16,-222.8 342,-222.8 342,-170.8 16,-170.8"/>
</g>
<g id="clust2" class="cluster">
<title>cluster_HeaderModule_declarations</title>
<polygon fill="none" stroke="black" points="20,-40.8 20,-92.8 339,-92.8 339,-40.8 20,-40.8"/>
</g>
<!-- GlobalHeadComponent -->
<g id="node1" class="node">
<title>GlobalHeadComponent</title>
<polygon fill="#ffffb3" stroke="black" points="331.47,-84.8 182.53,-84.8 182.53,-48.8 331.47,-48.8 331.47,-84.8"/>
<text text-anchor="middle" x="257" y="-62.6" font-family="Times,serif" font-size="14.00">GlobalHeadComponent</text>
</g>
<!-- HeaderModule -->
<g id="node3" class="node">
<title>HeaderModule</title>
<polygon fill="#8dd3c7" stroke="black" points="146.97,-149.8 143.97,-153.8 122.97,-153.8 119.97,-149.8 47.03,-149.8 47.03,-113.8 146.97,-113.8 146.97,-149.8"/>
<text text-anchor="middle" x="97" y="-127.6" font-family="Times,serif" font-size="14.00">HeaderModule</text>
</g>
<!-- GlobalHeadComponent&#45;&gt;HeaderModule -->
<g id="edge1" class="edge">
<title>GlobalHeadComponent&#45;&gt;HeaderModule</title>
<path fill="none" stroke="black" d="M281.83,-84.82C281.83,-102.17 281.83,-125.8 281.83,-125.8 281.83,-125.8 157.02,-125.8 157.02,-125.8"/>
<polygon fill="black" stroke="black" points="157.02,-122.3 147.02,-125.8 157.02,-129.3 157.02,-122.3"/>
</g>
<!-- TreeHeadComponent -->
<g id="node2" class="node">
<title>TreeHeadComponent</title>
<polygon fill="#ffffb3" stroke="black" points="164.01,-84.8 27.99,-84.8 27.99,-48.8 164.01,-48.8 164.01,-84.8"/>
<text text-anchor="middle" x="96" y="-62.6" font-family="Times,serif" font-size="14.00">TreeHeadComponent</text>
</g>
<!-- TreeHeadComponent&#45;&gt;HeaderModule -->
<g id="edge2" class="edge">
<title>TreeHeadComponent&#45;&gt;HeaderModule</title>
<path fill="none" stroke="black" d="M97,-84.91C97,-84.91 97,-103.79 97,-103.79"/>
<polygon fill="black" stroke="black" points="93.5,-103.79 97,-113.79 100.5,-103.79 93.5,-103.79"/>
</g>
<!-- GlobalHeadComponent  -->
<g id="node4" class="node">
<title>GlobalHeadComponent </title>
<polygon fill="#fb8072" stroke="black" points="334.47,-214.8 181.53,-214.8 181.53,-178.8 334.47,-178.8 334.47,-214.8"/>
<text text-anchor="middle" x="258" y="-192.6" font-family="Times,serif" font-size="14.00">GlobalHeadComponent </text>
</g>
<!-- HeaderModule&#45;&gt;GlobalHeadComponent  -->
<g id="edge3" class="edge">
<title>HeaderModule&#45;&gt;GlobalHeadComponent </title>
<path fill="none" stroke="black" stroke-dasharray="5,2" d="M147.33,-137.8C185.76,-137.8 232.17,-137.8 232.17,-137.8 232.17,-137.8 232.17,-168.78 232.17,-168.78"/>
<polygon fill="black" stroke="black" points="228.67,-168.78 232.17,-178.78 235.67,-168.78 228.67,-168.78"/>
</g>
<!-- TreeHeadComponent  -->
<g id="node5" class="node">
<title>TreeHeadComponent </title>
<polygon fill="#fb8072" stroke="black" points="164.01,-214.8 23.99,-214.8 23.99,-178.8 164.01,-178.8 164.01,-214.8"/>
<text text-anchor="middle" x="94" y="-192.6" font-family="Times,serif" font-size="14.00">TreeHeadComponent </text>
</g>
<!-- HeaderModule&#45;&gt;TreeHeadComponent  -->
<g id="edge4" class="edge">
<title>HeaderModule&#45;&gt;TreeHeadComponent </title>
<path fill="none" stroke="black" stroke-dasharray="5,2" d="M97,-149.91C97,-149.91 97,-168.79 97,-168.79"/>
<polygon fill="black" stroke="black" points="93.5,-168.79 97,-178.79 100.5,-168.79 93.5,-168.79"/>
</g>
</g>
</svg>
