<?xml version="1.0" encoding="UTF-8" standalone="no"?>
<!DOCTYPE svg PUBLIC "-//W3C//DTD SVG 1.1//EN"
 "http://www.w3.org/Graphics/SVG/1.1/DTD/svg11.dtd">
<!-- Generated by graphviz version 3.0.0 (20220226.1711)
 -->
<!-- Title: dependencies Pages: 1 -->
<svg width="350pt" height="247pt"
 viewBox="0.00 0.00 350.00 246.80" xmlns="http://www.w3.org/2000/svg" xmlns:xlink="http://www.w3.org/1999/xlink">
<g id="graph0" class="graph" transform="scale(1 1) rotate(0) translate(4 242.8)">
<title>dependencies</title>
<polygon fill="white" stroke="transparent" points="-4,4 -4,-242.8 346,-242.8 346,4 -4,4"/>
<text text-anchor="middle" x="171" y="-8.2" font-family="sans-serif" font-size="14.00">dependencies</text>
<g id="clust1" class="cluster">
<title>cluster_EqualsTableModule</title>
<polygon fill="none" stroke="black" stroke-dasharray="1,5" points="8,-32.8 8,-230.8 334,-230.8 334,-32.8 8,-32.8"/>
</g>
<g id="clust6" class="cluster">
<title>cluster_EqualsTableModule_exports</title>
<polygon fill="none" stroke="black" points="16,-170.8 16,-222.8 326,-222.8 326,-170.8 16,-170.8"/>
</g>
<g id="clust2" class="cluster">
<title>cluster_EqualsTableModule_declarations</title>
<polygon fill="none" stroke="black" points="19,-40.8 19,-92.8 323,-92.8 323,-40.8 19,-40.8"/>
</g>
<!-- EqualslistComponent -->
<g id="node1" class="node">
<title>EqualslistComponent</title>
<polygon fill="#ffffb3" stroke="black" points="315.05,-84.8 178.95,-84.8 178.95,-48.8 315.05,-48.8 315.05,-84.8"/>
<text text-anchor="middle" x="247" y="-62.6" font-family="Times,serif" font-size="14.00">EqualslistComponent</text>
</g>
<!-- EqualsTableModule -->
<g id="node3" class="node">
<title>EqualsTableModule</title>
<polygon fill="#8dd3c7" stroke="black" points="158.53,-149.8 155.53,-153.8 134.53,-153.8 131.53,-149.8 29.47,-149.8 29.47,-113.8 158.53,-113.8 158.53,-149.8"/>
<text text-anchor="middle" x="94" y="-127.6" font-family="Times,serif" font-size="14.00">EqualsTableModule</text>
</g>
<!-- EqualslistComponent&#45;&gt;EqualsTableModule -->
<g id="edge1" class="edge">
<title>EqualslistComponent&#45;&gt;EqualsTableModule</title>
<path fill="none" stroke="black" d="M269.76,-84.82C269.76,-102.17 269.76,-125.8 269.76,-125.8 269.76,-125.8 168.95,-125.8 168.95,-125.8"/>
<polygon fill="black" stroke="black" points="168.95,-122.3 158.95,-125.8 168.95,-129.3 168.95,-122.3"/>
</g>
<!-- SelectionComponent -->
<g id="node2" class="node">
<title>SelectionComponent</title>
<polygon fill="#ffffb3" stroke="black" points="160.93,-84.8 27.07,-84.8 27.07,-48.8 160.93,-48.8 160.93,-84.8"/>
<text text-anchor="middle" x="94" y="-62.6" font-family="Times,serif" font-size="14.00">SelectionComponent</text>
</g>
<!-- SelectionComponent&#45;&gt;EqualsTableModule -->
<g id="edge2" class="edge">
<title>SelectionComponent&#45;&gt;EqualsTableModule</title>
<path fill="none" stroke="black" d="M94,-84.91C94,-84.91 94,-103.79 94,-103.79"/>
<polygon fill="black" stroke="black" points="90.5,-103.79 94,-113.79 97.5,-103.79 90.5,-103.79"/>
</g>
<!-- EqualslistComponent  -->
<g id="node4" class="node">
<title>EqualslistComponent </title>
<polygon fill="#fb8072" stroke="black" points="318.05,-214.8 177.95,-214.8 177.95,-178.8 318.05,-178.8 318.05,-214.8"/>
<text text-anchor="middle" x="248" y="-192.6" font-family="Times,serif" font-size="14.00">EqualslistComponent </text>
</g>
<!-- EqualsTableModule&#45;&gt;EqualslistComponent  -->
<g id="edge3" class="edge">
<title>EqualsTableModule&#45;&gt;EqualslistComponent </title>
<path fill="none" stroke="black" stroke-dasharray="5,2" d="M158.74,-137.8C191.43,-137.8 224.24,-137.8 224.24,-137.8 224.24,-137.8 224.24,-168.78 224.24,-168.78"/>
<polygon fill="black" stroke="black" points="220.74,-168.78 224.24,-178.78 227.74,-168.78 220.74,-168.78"/>
</g>
<!-- SelectionComponent  -->
<g id="node5" class="node">
<title>SelectionComponent </title>
<polygon fill="#fb8072" stroke="black" points="160.43,-214.8 23.57,-214.8 23.57,-178.8 160.43,-178.8 160.43,-214.8"/>
<text text-anchor="middle" x="92" y="-192.6" font-family="Times,serif" font-size="14.00">SelectionComponent </text>
</g>
<!-- EqualsTableModule&#45;&gt;SelectionComponent  -->
<g id="edge4" class="edge">
<title>EqualsTableModule&#45;&gt;SelectionComponent </title>
<path fill="none" stroke="black" stroke-dasharray="5,2" d="M94,-149.91C94,-149.91 94,-168.79 94,-168.79"/>
<polygon fill="black" stroke="black" points="90.5,-168.79 94,-178.79 97.5,-168.79 90.5,-168.79"/>
</g>
</g>
</svg>
