<?xml version="1.0" encoding="UTF-8" standalone="no"?>
<!DOCTYPE svg PUBLIC "-//W3C//DTD SVG 1.1//EN"
 "http://www.w3.org/Graphics/SVG/1.1/DTD/svg11.dtd">
<!-- Generated by graphviz version 3.0.0 (20220226.1711)
 -->
<!-- Title: dependencies Pages: 1 -->
<svg width="311pt" height="247pt"
 viewBox="0.00 0.00 311.00 246.80" xmlns="http://www.w3.org/2000/svg" xmlns:xlink="http://www.w3.org/1999/xlink">
<g id="graph0" class="graph" transform="scale(1 1) rotate(0) translate(4 242.8)">
<title>dependencies</title>
<polygon fill="white" stroke="transparent" points="-4,4 -4,-242.8 307,-242.8 307,4 -4,4"/>
<text text-anchor="middle" x="151.5" y="-8.2" font-family="sans-serif" font-size="14.00">dependencies</text>
<g id="clust1" class="cluster">
<title>cluster_SubjectTreeModule</title>
<polygon fill="none" stroke="black" stroke-dasharray="1,5" points="8,-32.8 8,-230.8 295,-230.8 295,-32.8 8,-32.8"/>
</g>
<g id="clust2" class="cluster">
<title>cluster_SubjectTreeModule_declarations</title>
<polygon fill="none" stroke="black" points="19,-40.8 19,-92.8 283,-92.8 283,-40.8 19,-40.8"/>
</g>
<g id="clust6" class="cluster">
<title>cluster_SubjectTreeModule_exports</title>
<polygon fill="none" stroke="black" points="16,-170.8 16,-222.8 287,-222.8 287,-170.8 16,-170.8"/>
</g>
<!-- SubjectComponent -->
<g id="node1" class="node">
<title>SubjectComponent</title>
<polygon fill="#ffffb3" stroke="black" points="274.82,-84.8 151.18,-84.8 151.18,-48.8 274.82,-48.8 274.82,-84.8"/>
<text text-anchor="middle" x="213" y="-62.6" font-family="Times,serif" font-size="14.00">SubjectComponent</text>
</g>
<!-- SubjectTreeModule -->
<g id="node3" class="node">
<title>SubjectTreeModule</title>
<polygon fill="#8dd3c7" stroke="black" points="208.69,-149.8 205.69,-153.8 184.69,-153.8 181.69,-149.8 81.31,-149.8 81.31,-113.8 208.69,-113.8 208.69,-149.8"/>
<text text-anchor="middle" x="145" y="-127.6" font-family="Times,serif" font-size="14.00">SubjectTreeModule</text>
</g>
<!-- SubjectComponent&#45;&gt;SubjectTreeModule -->
<g id="edge1" class="edge">
<title>SubjectComponent&#45;&gt;SubjectTreeModule</title>
<path fill="none" stroke="black" d="M179.97,-84.91C179.97,-84.91 179.97,-103.79 179.97,-103.79"/>
<polygon fill="black" stroke="black" points="176.47,-103.79 179.97,-113.79 183.47,-103.79 176.47,-103.79"/>
</g>
<!-- TreeComponent -->
<g id="node2" class="node">
<title>TreeComponent</title>
<polygon fill="#ffffb3" stroke="black" points="133.47,-84.8 26.53,-84.8 26.53,-48.8 133.47,-48.8 133.47,-84.8"/>
<text text-anchor="middle" x="80" y="-62.6" font-family="Times,serif" font-size="14.00">TreeComponent</text>
</g>
<!-- TreeComponent&#45;&gt;SubjectTreeModule -->
<g id="edge2" class="edge">
<title>TreeComponent&#45;&gt;SubjectTreeModule</title>
<path fill="none" stroke="black" d="M107.45,-84.91C107.45,-84.91 107.45,-103.79 107.45,-103.79"/>
<polygon fill="black" stroke="black" points="103.95,-103.79 107.45,-113.79 110.95,-103.79 103.95,-103.79"/>
</g>
<!-- SubjectComponent  -->
<g id="node4" class="node">
<title>SubjectComponent </title>
<polygon fill="#fb8072" stroke="black" points="279.32,-214.8 152.68,-214.8 152.68,-178.8 279.32,-178.8 279.32,-214.8"/>
<text text-anchor="middle" x="216" y="-192.6" font-family="Times,serif" font-size="14.00">SubjectComponent </text>
</g>
<!-- SubjectTreeModule&#45;&gt;SubjectComponent  -->
<g id="edge3" class="edge">
<title>SubjectTreeModule&#45;&gt;SubjectComponent </title>
<path fill="none" stroke="black" stroke-dasharray="5,2" d="M180.59,-149.91C180.59,-149.91 180.59,-168.79 180.59,-168.79"/>
<polygon fill="black" stroke="black" points="177.09,-168.79 180.59,-178.79 184.09,-168.79 177.09,-168.79"/>
</g>
<!-- TreeComponent  -->
<g id="node5" class="node">
<title>TreeComponent </title>
<polygon fill="#fb8072" stroke="black" points="134.47,-214.8 23.53,-214.8 23.53,-178.8 134.47,-178.8 134.47,-214.8"/>
<text text-anchor="middle" x="79" y="-192.6" font-family="Times,serif" font-size="14.00">TreeComponent </text>
</g>
<!-- SubjectTreeModule&#45;&gt;TreeComponent  -->
<g id="edge4" class="edge">
<title>SubjectTreeModule&#45;&gt;TreeComponent </title>
<path fill="none" stroke="black" stroke-dasharray="5,2" d="M107.82,-149.91C107.82,-149.91 107.82,-168.79 107.82,-168.79"/>
<polygon fill="black" stroke="black" points="104.32,-168.79 107.82,-178.79 111.32,-168.79 104.32,-168.79"/>
</g>
</g>
</svg>
